<svg xmlns="http://www.w3.org/2000/svg" viewBox="0 0 48 48"><defs><style>.cls-1{fill:#201602}</style></defs><g id="Layer_2" data-name="Layer 2"><g id="layer_1-2" data-name="layer 1"><path class="cls-1" d="M11 12H1a1 1 0 0 1-1-1V1a1 1 0 0 1 1-1h10a1 1 0 0 1 1 1v10a1 1 0 0 1-1 1zm-9-2h8V2H2z"/><path class="cls-1" d="M5 5h2v2H5zM15 3h2v5h-2zM11 48H1a1 1 0 0 1-1-1V37a1 1 0 0 1 1-1h10a1 1 0 0 1 1 1v10a1 1 0 0 1-1 1zm-9-2h8v-8H2z"/><path class="cls-1" d="M5 41h2v2H5zM47 12H37a1 1 0 0 1-1-1V1a1 1 0 0 1 1-1h10a1 1 0 0 1 1 1v10a1 1 0 0 1-1 1zm-9-2h8V2h-8z"/><path class="cls-1" d="M41 5h2v2h-2zM29 12h-4v-2h3V0h2v11a1 1 0 0 1-1 1zM16 17h-6v-2h5v-4a1 1 0 0 1 1-1h4V0h2v11a1 1 0 0 1-1 1h-4v4a1 1 0 0 1-1 1zM2 32H0v-6a1 1 0 0 1 1-1h5v2H2zM14 27H8v-2h5v-5h2v6a1 1 0 0 1-1 1zM36 15h12v2H36zM21 25h-2v-4a1 1 0 0 1 1-1h6v-3h-6v-2h7a1 1 0 0 1 1 1v5a1 1 0 0 1-1 1h-6zM20 32H6v-2h13v-3h2v4a1 1 0 0 1-1 1zM0 20h10v2H0zM0 15h7v2H0zM39 22h-7a1 1 0 0 1-1-1v-6h2v5h6zM41 20h7v2h-7zM48 43h-6a1 1 0 0 1-1-1V32h-2v-2h3a1 1 0 0 1 1 1v10h5zM30 48h-8v-2h7V30h2v17a1 1 0 0 1-1 1z"/><path class="cls-1" d="M18 48h-2v-6a1 1 0 0 1 1-1h7v-3h2v4a1 1 0 0 1-1 1h-7zM24 25h2v11h-2zM36 30h-2v-3h-5v-2h6a1 1 0 0 1 1 1zM34 32h2v11h-2zM48 36h-2v-9h-7v-2h8a1 1 0 0 1 1 1zM15 36h6v2h-6zM34 46h14v2H34z"/></g></g></svg>